<svg width="126" height="34" viewBox="0 0 126 34" fill="none" xmlns="http://www.w3.org/2000/svg">
<path d="M103.763 33.8023C101.766 33.8023 100.171 33.3573 98.9767 32.4674C97.8046 31.5558 97.2185 30.3077 97.2185 28.7232C97.2185 26.9 97.8914 25.6194 99.2372 24.8814C100.605 24.1434 102.395 23.6442 104.609 23.3837C104.805 23.362 105.391 23.2969 106.368 23.1884C107.366 23.0799 108.082 22.9062 108.517 22.6675C108.951 22.407 109.168 22.0597 109.168 21.6256C109.146 20.7791 108.82 20.1062 108.191 19.607C107.561 19.0861 106.704 18.8256 105.619 18.8256C104.49 18.8256 103.546 19.1078 102.786 19.6721C102.026 20.2147 101.592 20.9419 101.484 21.8535H97.6092C97.7177 20.6597 98.1302 19.5961 98.8465 18.6628C99.5628 17.7078 100.507 16.9698 101.679 16.4489C102.873 15.9279 104.208 15.6675 105.684 15.6675C107.963 15.6675 109.732 16.2318 110.991 17.3605C112.272 18.4892 112.912 19.9977 112.912 21.8861V29.7C112.912 30.1992 113.194 30.4488 113.759 30.4488H114.703V33.4442H112.879C112.011 33.4442 111.306 33.2705 110.763 32.9232C110.242 32.5759 109.906 32.0767 109.754 31.4256C109.689 31.2302 109.634 31.0349 109.591 30.8395C108.527 32.8147 106.585 33.8023 103.763 33.8023ZM104.544 30.7744C105.89 30.7744 106.997 30.4271 107.865 29.7325C108.734 29.038 109.168 28.1155 109.168 26.9651V24.5558C108.886 25.0116 108.419 25.3372 107.768 25.5326C107.116 25.7062 106.205 25.869 105.033 26.0209C103.687 26.1729 102.688 26.4008 102.037 26.7046C101.408 27.0085 101.093 27.5729 101.093 28.3977C101.093 29.1574 101.386 29.7434 101.972 30.1558C102.58 30.5682 103.437 30.7744 104.544 30.7744Z" fill="black"/>
<path d="M68.9851 33.5106V16.1904H72.0898L72.3839 18.6087C72.9504 17.7372 73.7347 17.0291 74.7369 16.4845C75.7609 15.9398 76.9048 15.6675 78.1684 15.6675C79.3885 15.6675 80.4561 15.9616 81.3711 16.5498C82.308 17.1163 83.0052 17.9006 83.4627 18.9028C83.9638 17.9442 84.7482 17.1707 85.8157 16.5825C86.8833 15.9725 88.0816 15.6675 89.4106 15.6675C91.219 15.6675 92.6569 16.2557 93.7245 17.4322C94.8139 18.5869 95.3585 20.101 95.3585 21.9747V33.5106H91.4695V22.1707C91.4695 21.2121 91.1972 20.4496 90.6525 19.8832C90.1078 19.2949 89.367 19.0008 88.4302 19.0008C87.123 19.0008 86.0772 19.3821 85.2928 20.1446C84.5085 20.8853 84.1054 21.844 84.0837 23.0204V33.5106H80.2273V22.1707C80.2273 21.2121 79.955 20.4496 79.4103 19.8832C78.8656 19.2949 78.1248 19.0008 77.188 19.0008C75.8808 19.0008 74.835 19.3821 74.0506 20.1446C73.2663 20.8853 72.8632 21.844 72.8414 23.0204V33.5106H68.9851Z" fill="black"/>
<path d="M56.4377 33.8701C54.4333 33.8701 52.832 33.4235 51.6337 32.5302C50.4572 31.6152 49.8689 30.3625 49.8689 28.7721C49.8689 26.942 50.5443 25.6566 51.8951 24.9158C53.2677 24.1751 55.0652 23.674 57.2874 23.4126C57.4835 23.3908 58.0718 23.3254 59.0522 23.2165C60.0544 23.1076 60.7734 22.9333 61.2091 22.6936C61.6449 22.4322 61.8628 22.0836 61.8628 21.6479C61.841 20.7982 61.5142 20.1228 60.8823 19.6217C60.2505 19.0989 59.3899 18.8374 58.3006 18.8374C57.1676 18.8374 56.2199 19.1206 55.4573 19.6871C54.6948 20.2318 54.259 20.9616 54.1501 21.8766H50.2611C50.37 20.6784 50.784 19.6108 51.5029 18.674C52.2219 17.7154 53.1697 16.9747 54.3462 16.4518C55.5445 15.9289 56.8844 15.6675 58.3659 15.6675C60.6536 15.6675 62.4292 16.2339 63.6929 17.3668C64.9783 18.4997 65.6211 20.0139 65.6211 21.9093V29.7524C65.6211 30.2535 65.9043 30.5041 66.4708 30.5041H67.4185V33.5106H65.5884C64.7169 33.5106 64.0088 33.3363 63.4641 32.9877C62.9412 32.6392 62.6035 32.1381 62.451 31.4845C62.3857 31.2884 62.3312 31.0923 62.2876 30.8962C61.22 32.8788 59.2701 33.8701 56.4377 33.8701ZM57.2221 30.8309C58.5729 30.8309 59.684 30.4823 60.5555 29.7851C61.427 29.088 61.8628 28.162 61.8628 27.0074V24.5891C61.5795 25.0466 61.1111 25.3734 60.4575 25.5694C59.8039 25.7437 58.8888 25.9071 57.7123 26.0596C56.3615 26.2121 55.3593 26.4409 54.7057 26.7459C54.0738 27.0509 53.7579 27.6174 53.7579 28.4453C53.7579 29.2078 54.052 29.796 54.6403 30.21C55.2503 30.6239 56.1109 30.8309 57.2221 30.8309Z" fill="black"/>
<path d="M39.2224 33.51V16.1897H42.3271L42.7846 19.5884C43.9176 17.1919 45.922 15.9937 48.7979 15.9937H49.4515V19.7518H48.7979C46.9896 19.7518 45.5843 20.2093 44.5821 21.1244C43.5799 22.0394 43.0788 23.3139 43.0788 24.9479V33.51H39.2224Z" fill="black"/>
<path d="M26.6782 33.8701C24.6738 33.8701 23.0724 33.4235 21.8741 32.5302C20.6976 31.6152 20.1094 30.3625 20.1094 28.7721C20.1094 26.942 20.7848 25.6566 22.1356 24.9158C23.5082 24.1751 25.3056 23.674 27.5279 23.4126C27.724 23.3908 28.3123 23.3254 29.2927 23.2165C30.2949 23.1076 31.0139 22.9333 31.4496 22.6936C31.8854 22.4322 32.1032 22.0836 32.1032 21.6479C32.0815 20.7982 31.7546 20.1228 31.1228 19.6217C30.491 19.0989 29.6304 18.8374 28.541 18.8374C27.4081 18.8374 26.4603 19.1206 25.6978 19.6871C24.9352 20.2318 24.4995 20.9616 24.3906 21.8766H20.5015C20.6105 20.6784 21.0244 19.6108 21.7434 18.674C22.4624 17.7154 23.4101 16.9747 24.5866 16.4518C25.7849 15.9289 27.1249 15.6675 28.6064 15.6675C30.894 15.6675 32.6697 16.2339 33.9334 17.3668C35.2188 18.4997 35.8615 20.0139 35.8615 21.9093V29.7524C35.8615 30.2535 36.1448 30.5041 36.7112 30.5041H37.659V33.5106H35.8289C34.9574 33.5106 34.2493 33.3363 33.7046 32.9877C33.1817 32.6392 32.844 32.1381 32.6915 31.4845C32.6261 31.2884 32.5717 31.0923 32.5281 30.8962C31.4605 32.8788 29.5106 33.8701 26.6782 33.8701ZM27.4626 30.8309C28.8134 30.8309 29.9245 30.4823 30.796 29.7851C31.6675 29.088 32.1032 28.162 32.1032 27.0074V24.5891C31.82 25.0466 31.3516 25.3734 30.698 25.5694C30.0443 25.7437 29.1293 25.9071 27.9528 26.0596C26.602 26.2121 25.5998 26.4409 24.9461 26.7459C24.3143 27.0509 23.9984 27.6174 23.9984 28.4453C23.9984 29.2078 24.2925 29.796 24.8808 30.21C25.4908 30.6239 26.3514 30.8309 27.4626 30.8309Z" fill="black"/>
<path d="M10.3271 34.0003C8.3445 34.0003 6.59063 33.6952 5.06553 33.0852C3.54042 32.4534 2.33123 31.5711 1.43796 30.4382C0.566468 29.2835 0.0871489 27.9545 0 26.4512H4.01974C4.19404 27.7149 4.83676 28.7061 5.94791 29.4251C7.05906 30.144 8.5188 30.5035 10.3271 30.5035C11.8087 30.5035 12.9307 30.2421 13.6933 29.7192C14.4776 29.1745 14.8698 28.412 14.8698 27.4316C14.8698 26.6037 14.5756 25.961 13.9874 25.5035C13.3991 25.046 12.4841 24.6212 11.2422 24.229L7.51659 23.1179C6.16578 22.704 5.03285 22.29 4.11778 21.8761C3.22451 21.4621 2.41838 20.8303 1.6994 19.9806C1.00221 19.131 0.653616 18.0199 0.653616 16.6473C0.653616 15.3837 0.980425 14.2617 1.63404 13.2813C2.30944 12.3009 3.25719 11.5384 4.47727 10.9937C5.71914 10.4273 7.168 10.144 8.82382 10.144C11.5908 10.144 13.8022 10.8412 15.458 12.2355C17.1139 13.6299 18.018 15.5362 18.1705 17.9545H14.1835C14.0963 16.6255 13.5734 15.5798 12.6148 14.8172C11.6779 14.0329 10.3707 13.6408 8.6931 13.6408C7.42944 13.6408 6.41634 13.8913 5.65378 14.3924C4.91302 14.8935 4.54263 15.5798 4.54263 16.4512C4.54263 17.0613 4.71693 17.5623 5.06553 17.9545C5.43591 18.3249 5.86076 18.6081 6.34008 18.8042C6.84119 19.0003 7.64731 19.2835 8.75846 19.6538L12.2226 20.7323C13.617 21.168 14.7608 21.6146 15.6541 22.0722C16.5692 22.5079 17.3317 23.1397 17.9418 23.9676C18.5518 24.7955 18.8568 25.8848 18.8568 27.2356C18.8568 28.6081 18.5082 29.8064 17.811 30.8303C17.1139 31.8543 16.1225 32.6386 14.8371 33.1833C13.5516 33.7279 12.0483 34.0003 10.3271 34.0003Z" fill="black"/>
<path d="M123.886 4.28613C121.62 5.52726 118.787 6.41764 115.577 6.60465C119.246 11.2742 118.545 16.1578 118.545 16.1578C122.78 12.7582 123.886 9.0348 123.886 4.28613Z" fill="#EB4E4E"/>
<path fill-rule="evenodd" clip-rule="evenodd" d="M104.462 3.6537C104.228 3.50549 103.922 3.67386 103.922 3.95112V7.70148C103.922 8.17904 104.167 8.62331 104.57 8.87859C108.357 11.2741 112.781 12.2051 117.062 11.6717C117.181 10.7695 117.173 9.72152 116.861 8.5192C117.088 8.92883 117.286 9.33469 117.459 9.73324C117.726 10.3487 117.933 10.9467 118.093 11.5144C120.455 11.0873 122.754 10.2087 124.857 8.87859C125.261 8.62331 125.505 8.17904 125.505 7.70148V3.95112C125.505 3.67386 125.199 3.50549 124.965 3.6537C118.704 7.61395 110.723 7.61395 104.462 3.6537Z" fill="#EB4E4E"/>
<path d="M125.506 6.69732C125.506 6.97458 125.2 7.14295 124.966 6.99474C118.705 3.03448 110.723 3.03448 104.462 6.99474C104.228 7.14294 103.922 6.97458 103.922 6.69732L103.922 4.11617C103.922 3.6386 104.167 3.19434 104.571 2.93906C110.765 -0.979384 118.663 -0.979383 124.857 2.93906C125.261 3.19434 125.506 3.63861 125.506 4.11617L125.506 6.69732Z" fill="#EB4E4E"/>
</svg>
