<svg width="256" height="72" viewBox="0 0 256 72" fill="none" xmlns="http://www.w3.org/2000/svg">
<g clip-path="url(#clip0_189_166)">
<path d="M209.61 71.5806C205.575 71.5806 202.353 70.6384 199.941 68.7539C197.573 66.8233 196.389 64.1806 196.389 60.8251C196.389 56.9642 197.749 54.2521 200.467 52.6894C203.23 51.1267 206.847 50.0696 211.32 49.5178C211.714 49.472 212.898 49.3339 214.871 49.1041C216.888 48.8744 218.335 48.5065 219.212 48.0012C220.089 47.4494 220.528 46.7141 220.528 45.7948C220.484 44.0023 219.826 42.5773 218.555 41.5202C217.283 40.417 215.551 39.8656 213.359 39.8656C211.079 39.8656 209.171 40.4628 207.637 41.658C206.102 42.8071 205.225 44.3469 205.006 46.2775H197.179C197.398 43.7493 198.231 41.497 199.678 39.5206C201.125 37.4984 203.032 35.9353 205.4 34.8324C207.812 33.7292 210.508 33.1777 213.49 33.1777C218.094 33.1777 221.668 34.3726 224.211 36.763C226.798 39.1531 228.092 42.3476 228.092 46.3462V62.8934C228.092 63.9505 228.661 64.4791 229.802 64.4791H231.709V70.8223H228.026C226.272 70.8223 224.847 70.4544 223.751 69.719C222.698 68.9837 222.018 67.9266 221.712 66.5474C221.58 66.1338 221.471 65.7201 221.383 65.3064C219.234 69.4893 215.31 71.5806 209.61 71.5806ZM211.188 65.1686C213.907 65.1686 216.143 64.4333 217.897 62.9625C219.651 61.4914 220.528 59.5379 220.528 57.102V51.9998C219.958 52.9653 219.015 53.6545 217.7 54.0682C216.384 54.4361 214.542 54.7807 212.175 55.1024C209.456 55.4244 207.439 55.9068 206.124 56.5502C204.852 57.194 204.216 58.3889 204.216 60.1355C204.216 61.7444 204.808 62.9854 205.992 63.8586C207.22 64.7321 208.952 65.1686 211.188 65.1686Z" fill="white"/>
<path d="M139.355 70.963V34.2849H145.627L146.221 39.4061C147.366 37.5606 148.95 36.061 150.975 34.9077C153.043 33.7544 155.354 33.1777 157.906 33.1777C160.371 33.1777 162.528 33.8005 164.376 35.0461C166.269 36.2456 167.677 37.9065 168.601 40.0289C169.614 37.9988 171.198 36.3611 173.355 35.1155C175.511 33.8234 177.932 33.1777 180.616 33.1777C184.269 33.1777 187.174 34.4233 189.331 36.9145C191.531 39.3599 192.632 42.5662 192.632 46.5341V70.963H184.776V46.9494C184.776 44.9193 184.225 43.3045 183.125 42.1051C182.025 40.8592 180.529 40.2364 178.636 40.2364C175.995 40.2364 173.883 41.0437 172.298 42.6585C170.714 44.2271 169.9 46.2572 169.856 48.7484V70.963H162.065V46.9494C162.065 44.9193 161.515 43.3045 160.415 42.1051C159.315 40.8592 157.818 40.2364 155.926 40.2364C153.285 40.2364 151.173 41.0437 149.588 42.6585C148.004 44.2271 147.19 46.2572 147.146 48.7484V70.963H139.355Z" fill="white"/>
<path d="M114.009 71.7242C109.96 71.7242 106.725 70.7784 104.305 68.8871C101.928 66.9493 100.74 64.2965 100.74 60.9285C100.74 57.0529 102.104 54.331 104.833 52.7624C107.606 51.1938 111.236 50.1328 115.726 49.579C116.122 49.5329 117.31 49.3944 119.291 49.1637C121.315 48.9333 122.768 48.5641 123.648 48.0565C124.528 47.5028 124.968 46.7648 124.968 45.8419C124.924 44.0429 124.264 42.6127 122.988 41.5513C121.711 40.4442 119.973 39.8904 117.772 39.8904C115.484 39.8904 113.569 40.4903 112.029 41.6898C110.488 42.8431 109.608 44.3888 109.388 46.3266H101.532C101.752 43.7889 102.588 41.5284 104.041 39.5445C105.493 37.5144 107.408 35.9458 109.784 34.8386C112.205 33.7315 114.912 33.1777 117.904 33.1777C122.526 33.1777 126.112 34.3772 128.665 36.7764C131.262 39.1753 132.56 42.382 132.56 46.3956V63.0047C132.56 64.0657 133.132 64.5962 134.277 64.5962H136.191V70.963H132.494C130.734 70.963 129.303 70.5938 128.203 69.8558C127.147 69.1175 126.465 68.0565 126.156 66.6725C126.024 66.2572 125.915 65.8418 125.826 65.4269C123.67 69.6251 119.731 71.7242 114.009 71.7242ZM115.594 65.2884C118.322 65.2884 120.567 64.5501 122.327 63.0738C124.088 61.5974 124.968 59.6368 124.968 57.1914V52.0705C124.396 53.0393 123.45 53.7314 122.129 54.1464C120.809 54.5156 118.961 54.8615 116.584 55.1845C113.855 55.5076 111.831 55.9919 110.51 56.638C109.234 57.2837 108.596 58.4834 108.596 60.2363C108.596 61.8511 109.19 63.097 110.378 63.9734C111.611 64.8502 113.349 65.2884 115.594 65.2884Z" fill="white"/>
<path d="M79.2311 70.9616V34.2835H85.5028L86.4269 41.4809C88.7156 36.4058 92.7644 33.8682 98.5741 33.8682H99.8943V41.8268H98.5741C94.9211 41.8268 92.0823 42.7955 90.0577 44.7333C88.0334 46.6711 87.021 49.3701 87.021 52.83V70.9616H79.2311Z" fill="white"/>
<path d="M53.8927 71.7242C49.8435 71.7242 46.6085 70.7784 44.1881 68.8871C41.8114 66.9493 40.6231 64.2965 40.6231 60.9285C40.6231 57.0529 41.9874 54.331 44.7163 52.7624C47.4889 51.1938 51.1198 50.1328 55.6091 49.579C56.0053 49.5329 57.1935 49.3944 59.1741 49.1637C61.1987 48.9333 62.651 48.5641 63.5311 48.0565C64.4115 47.5028 64.8517 46.7648 64.8517 45.8419C64.8076 44.0429 64.1473 42.6127 62.8711 41.5513C61.5948 40.4442 59.8562 39.8904 57.6556 39.8904C55.3672 39.8904 53.4525 40.4903 51.9121 41.6898C50.3717 42.8431 49.4914 44.3888 49.2713 46.3266H41.4152C41.6353 43.7889 42.4716 41.5284 43.924 39.5445C45.3763 37.5144 47.291 35.9458 49.6674 34.8386C52.0882 33.7315 54.7949 33.1777 57.7876 33.1777C62.409 33.1777 65.9959 34.3772 68.5487 36.7764C71.1452 39.1753 72.4436 42.382 72.4436 46.3956V63.0047C72.4436 64.0657 73.0159 64.5962 74.1601 64.5962H76.0745V70.963H72.3774C70.617 70.963 69.1868 70.5938 68.0863 69.8558C67.0302 69.1175 66.348 68.0565 66.0399 66.6725C65.9078 66.2572 65.7979 65.8418 65.7099 65.4269C63.5532 69.6251 59.6143 71.7242 53.8927 71.7242ZM55.4771 65.2884C58.2057 65.2884 60.4503 64.5501 62.2108 63.0738C63.9713 61.5974 64.8517 59.6368 64.8517 57.1914V52.0705C64.2794 53.0393 63.3331 53.7314 62.0129 54.1464C60.6926 54.5156 58.8441 54.8615 56.4674 55.1845C53.7385 55.5076 51.7142 55.9919 50.3936 56.638C49.1173 57.2837 48.4792 58.4834 48.4792 60.2363C48.4792 61.8511 49.0733 63.097 50.2615 63.9734C51.4941 64.8502 53.2324 65.2884 55.4771 65.2884Z" fill="white"/>
<path d="M20.8616 72.0002C16.8565 72.0002 13.3136 71.3545 10.2327 70.0627C7.15192 68.7248 4.70925 66.8561 2.90478 64.4572C1.14431 62.0118 0.176047 59.1976 0 56.0142H8.12016C8.47226 58.69 9.77062 60.7894 12.0152 62.3119C14.2598 63.8344 17.2086 64.5956 20.8616 64.5956C23.8544 64.5956 26.121 64.0419 27.6614 62.9347C29.2458 61.7811 30.038 60.1663 30.038 58.0904C30.038 56.3372 29.4439 54.9761 28.2556 54.0074C27.0672 53.0383 25.2188 52.1386 22.7101 51.3084L15.184 48.9553C12.4553 48.0788 10.1667 47.2024 8.31822 46.3256C6.51373 45.4492 4.88529 44.111 3.43293 42.312C2.02454 40.5126 1.32035 38.1595 1.32035 35.253C1.32035 32.5771 1.98053 30.2011 3.30087 28.125C4.66526 26.0489 6.57976 24.4342 9.04442 23.2808C11.5531 22.0812 14.4799 21.4814 17.8248 21.4814C23.4143 21.4814 27.8815 22.9578 31.2264 25.9105C34.5712 28.8632 36.3976 32.9003 36.7057 38.0211H28.6517C28.4756 35.2069 27.4193 32.9922 25.4828 31.3776C23.5903 29.7167 20.9496 28.8863 17.5607 28.8863C15.008 28.8863 12.9615 29.4168 11.4211 30.478C9.92465 31.5391 9.17645 32.9922 9.17645 34.8377C9.17645 36.1298 9.52854 37.1908 10.2327 38.0211C10.9809 38.8056 11.8392 39.4051 12.8074 39.8204C13.8197 40.2357 15.4481 40.8356 17.6927 41.6198L24.6906 43.9035C27.5074 44.8264 29.818 45.7719 31.6226 46.7409C33.4711 47.6635 35.0114 49.0014 36.2437 50.7546C37.4759 52.5078 38.0922 54.8148 38.0922 57.6751C38.0922 60.5816 37.3879 63.1193 35.9796 65.2875C34.5712 67.456 32.5688 69.1169 29.972 70.2702C27.3753 71.4235 24.3385 72.0002 20.8616 72.0002Z" fill="white"/>
<path d="M250.26 9.07617C245.682 11.7044 239.96 13.5899 233.474 13.9859C240.886 23.8744 239.47 34.2162 239.47 34.2162C248.026 27.0169 250.26 19.1321 250.26 9.07617Z" fill="#CD422D"/>
<path d="M252.44 7.73921C252.913 7.42535 253.531 7.78169 253.531 8.36885V16.3109C253.531 17.3216 253.035 18.2603 252.22 18.8007C247.971 21.6182 243.326 23.4768 238.553 24.3809C238.23 23.1801 237.814 21.9146 237.275 20.6128C236.925 19.7688 236.527 18.9075 236.068 18.04C236.698 20.5836 236.709 22.8008 236.47 24.7101C227.822 25.8385 218.891 23.8724 211.242 18.8007C210.427 18.2603 209.931 17.3217 209.931 16.3109V8.36885C209.931 7.78169 210.549 7.42535 211.022 7.73921C223.669 16.1248 239.793 16.125 252.44 7.73921Z" fill="#CD422D"/>
<path d="M253.532 14.182C253.532 14.7692 252.915 15.1257 252.441 14.8118C239.794 6.42545 223.67 6.42545 211.023 14.8118C210.55 15.1257 209.932 14.7692 209.932 14.182V8.71607C209.932 7.70476 210.426 6.76398 211.242 6.22339C223.756 -2.07446 239.709 -2.07446 252.222 6.22339C253.038 6.76398 253.532 7.70476 253.532 8.7161V14.182Z" fill="#CD422D"/>
</g>
<defs>
<clipPath id="clip0_189_166">
<rect width="256" height="72" fill="white"/>
</clipPath>
</defs>
</svg>
